<?xml version="1.0" encoding="utf-8"?>
<!-- Generator: Adobe Illustrator 16.0.0, SVG Export Plug-In . SVG Version: 6.00 Build 0)  -->
<!DOCTYPE svg PUBLIC "-//W3C//DTD SVG 1.1//EN" "http://www.w3.org/Graphics/SVG/1.1/DTD/svg11.dtd">
<svg version="1.1" id="Livello_1" xmlns="http://www.w3.org/2000/svg" xmlns:xlink="http://www.w3.org/1999/xlink" x="0px" y="0px"
	 width="640px" height="480px" viewBox="0 0 640 480" enable-background="new 0 0 640 480" xml:space="preserve">
<g>
	<g>
		
			<line fill="none" stroke="#231F20" stroke-width="1.5021" stroke-linecap="round" stroke-linejoin="round" stroke-miterlimit="10" x1="311.955" y1="120.644" x2="329.793" y2="138.177"/>
		
			<path fill="#FFFFFF" stroke="#231F20" stroke-width="1.5021" stroke-linecap="round" stroke-linejoin="round" stroke-miterlimit="10" d="
			M421.237,134.006"/>
	</g>
	<g>
		<line fill="none" x1="320.876" y1="129.409" x2="329.795" y2="138.175"/>
	</g>
	<g>
		<polygon fill="#231F20" points="313.346,129.542 321.82,184.546 328.409,129.273 		"/>
	</g>
	<path fill="#231F20" d="M309.013,117.749c6.328-6.67,16.768-6.855,23.321-0.415c6.552,6.44,6.734,17.067,0.406,23.736
		c-6.328,6.67-16.768,6.855-23.32,0.416C302.868,135.043,302.685,124.417,309.013,117.749z"/>
	<path fill="#F8F5EF" d="M311.956,120.643c4.759-5.014,12.606-5.153,17.535-0.312c4.925,4.842,5.063,12.831,0.305,17.846
		c-4.758,5.014-12.606,5.152-17.533,0.311C307.337,133.646,307.2,125.656,311.956,120.643z"/>
	<path fill="none" stroke="#231F20" stroke-width="1.5021" stroke-miterlimit="10" d="M314.92,123.555
		c3.177-3.348,8.418-3.441,11.708-0.208s3.381,8.568,0.204,11.916c-3.177,3.349-8.418,3.441-11.708,0.209
		C311.834,132.238,311.744,126.903,314.92,123.555z"/>
</g>
<path fill="none" d="M213.5,241.65"/>
<path fill="none" d="M542.5,240"/>
<path fill="none" d="M408.763,241.32"/>
<line fill="none" stroke="#000000" stroke-miterlimit="10" stroke-opacity="0" x1="127.038" y1="379.114" x2="127.038" y2="96.176"/>
<line fill="none" stroke="#000000" stroke-miterlimit="10" stroke-opacity="0" x1="494.5" y1="381.473" x2="127.038" y2="379.682"/>
<line fill="none" stroke="#000000" stroke-miterlimit="10" stroke-opacity="0" x1="127.038" y1="96.176" x2="494.5" y2="96.525"/>
<line fill="none" stroke="#000000" stroke-miterlimit="10" stroke-opacity="0" x1="494.5" y1="96.525" x2="494.5" y2="381.473"/>
<line fill="none" x1="210.944" y1="241.322" x2="432.788" y2="241.322"/>
<line fill="none" x1="210.944" y1="241.322" x2="310.944" y2="241.322"/>
<line fill="none" x1="321.865" y1="354.527" x2="321.865" y2="128.117"/>
</svg>
