<svg id="Livello_1" data-name="Livello 1" xmlns="http://www.w3.org/2000/svg" xmlns:xlink="http://www.w3.org/1999/xlink" viewBox="0 0 186.38 186.38"><defs><style>.cls-1,.cls-4,.cls-6{fill:none;}.cls-2{fill:#07916a;}.cls-3{font-size:15px;}.cls-3,.cls-7{fill:#fff;font-family:Brandon Grotesque;}.cls-4,.cls-6{stroke:#fff;}.cls-4{stroke-width:2.06px;}.cls-5{clip-path:url(#clip-path);}.cls-6{stroke-width:0.69px;}.cls-7{font-size:12.38px;}</style><clipPath id="clip-path" transform="translate(-225.01 -340.82)"><rect class="cls-1" x="225.01" y="340.82" width="186.38" height="186.38"/></clipPath></defs><title>ICONA 4</title><rect class="cls-2" width="186.38" height="186.38"/><text class="cls-3" transform="translate(73.95 155.49)">HOME</text><line class="cls-4" x1="72.92" y1="20.9" x2="72.92" y2="104.6"/><line class="cls-4" x1="33.73" y1="62.75" x2="157.11" y2="62.75"/><line class="cls-4" x1="49.43" y1="28.31" x2="49.43" y2="39.12"/><g class="cls-5"><circle class="cls-6" cx="49.43" cy="39.12" r="10.86"/></g><text class="cls-7" transform="translate(82.04 88.27)">AW<tspan x="18.51" y="0">A</tspan></text><text class="cls-7" transform="translate(36.44 88.27)">C<tspan x="8.3" y="0">OG</tspan></text><line class="cls-4" x1="117.84" y1="20.9" x2="117.84" y2="104.6"/><line class="cls-4" x1="72.92" y1="20.9" x2="72.92" y2="104.6"/><text class="cls-7" transform="translate(126.95 88.27)">S<tspan x="6.78" y="0">O</tspan><tspan x="16.5" y="0">W</tspan></text><line class="cls-4" x1="95.38" y1="28.31" x2="95.38" y2="39.12"/><g class="cls-5"><circle class="cls-6" cx="95.38" cy="39.12" r="10.86"/></g><line class="cls-4" x1="140.74" y1="28.31" x2="140.74" y2="39.12"/><g class="cls-5"><circle class="cls-6" cx="140.74" cy="39.12" r="10.86"/></g></svg>