<svg id="Livello_1" data-name="Livello 1" xmlns="http://www.w3.org/2000/svg" viewBox="0 0 186.38 186.38"><defs><style>.cls-1{fill:#07916a;}.cls-2,.cls-4{fill:#fff;}.cls-3{fill:none;stroke:#fff;stroke-miterlimit:22.93;stroke-width:1.5px;}.cls-4{font-size:15px;font-family:Brandon Grotesque;}</style></defs><title>ICONA 1</title><rect class="cls-1" width="186.38" height="186.38"/><polygon class="cls-2" points="19.57 36.92 19.58 36.92 20.28 35.53 20.98 36.92 20.99 36.92 20.99 36.94 22.27 39.46 20.99 39.46 20.99 119.07 19.57 119.07 19.57 39.46 18.3 39.46 19.57 36.94 19.57 36.92"/><polygon class="cls-2" points="20.99 78.57 20.99 77.86 165.56 77.86 165.56 76.68 170.29 78.22 165.56 79.76 165.56 78.57 20.99 78.57"/><polyline class="cls-3" points="21.04 77.77 21.75 77.33 30.73 71.76 40.08 75.32 49.77 85.99 59.79 67.83 69.48 67.83 78.83 62.21 88.86 54.16 98.2 67.46 107.89 59.78 117.58 71.2 127.27 87.12 137.29 72.89 146.98 71.2 156.67 54.54"/><text class="cls-4" transform="translate(60.29 155.73)">GRAFI<tspan x="43.9" y="0">C</tspan><tspan x="53.97" y="0">O</tspan></text></svg>