<svg id="Livello_1" data-name="Livello 1" xmlns="http://www.w3.org/2000/svg" viewBox="0 0 186.38 186.38"><defs><style>.cls-1{fill:#07916a;}.cls-2{font-size:15px;fill:#fff;font-family:Brandon Grotesque;}.cls-3,.cls-4{fill:none;stroke:#fff;}.cls-3{stroke-width:2px;}.cls-4{stroke-width:0.5px;}</style></defs><title>ICONA 2</title><rect class="cls-1" width="186.38" height="186.38"/><text class="cls-2" transform="translate(60.92 155.73)">S<tspan x="8.22" y="0">T</tspan><tspan x="15.82" y="0">ORI</tspan><tspan x="42.66" y="0">C</tspan><tspan x="52.72" y="0">O</tspan></text><line class="cls-3" x1="93.19" y1="128.83" x2="93.19" y2="13.18"/><polyline class="cls-4" points="93.41 14.71 126.33 14.71 126.33 18.39 102.8 18.39 103.37 20.66 27.4 20.84 27.4 22.93 45.82 23.78 45.82 26.61 61.41 26.61 61.98 28.88 99.4 29.06 99.68 31.33 137.95 31.33 137.95 33.41 118.39 33.41 118.39 35.97 111.02 35.97 111.02 39.94 96 39.94 96 42.2 84.66 42.2 84.66 44.75 73.04 44.75 73.04 46.74 61.98 47.87 61.98 49.86 73.04 49.86 73.04 52.41 87.78 52.41 88.34 55.81 89.76 55.93 89.76 59.49 93.41 59.49 93.41 61.76 131.71 63.18 131.71 63.93 116.12 63.93 116.41 66.3 127.18 66.39 127.46 68.86 138.7 70.27 138.79 71.01 145.6 72.82 145.79 74.8 130.29 76.22 130.58 78.49 152.97 78.58 152.98 81.67 159.49 82.74 159.61 86.99 97.98 87.01 97.7 89.83 86.36 91.24 86.08 93.23 48.09 93.33 47.81 95.78 33.07 96.91 33.07 99.46 34.48 100.31 34.77 102.01 42.14 102.14 42.14 104.28 57.73 105.98 57.73 107.97 60 107.97 60 110.23 74.74 110.23 74.74 113.07 82.04 113.07 82.04 115.34 83.52 115.34 83.52 117.32 69.92 118.45 70.2 121.01 65.95 121.09 65.95 123.27 50.08 123.27 50.64 127.53"/></svg>