<?xml version="1.0" encoding="utf-8"?>
<!-- Generator: Adobe Illustrator 16.0.0, SVG Export Plug-In . SVG Version: 6.00 Build 0)  -->
<!DOCTYPE svg PUBLIC "-//W3C//DTD SVG 1.1//EN" "http://www.w3.org/Graphics/SVG/1.1/DTD/svg11.dtd">
<svg version="1.1" id="Livello_1" xmlns="http://www.w3.org/2000/svg" xmlns:xlink="http://www.w3.org/1999/xlink" x="0px" y="0px"
	 width="640px" height="480px" viewBox="0 0 640 480" enable-background="new 0 0 640 480" xml:space="preserve">
<g>
	<g>
		
			<polygon fill="#FFFFFF" stroke="#231F20" stroke-width="1.5285" stroke-linecap="round" stroke-linejoin="round" stroke-miterlimit="10" points="
			334.691,240.906 321.963,151.353 309.233,240.906 		"/>
		<polygon fill="#231F20" points="321.961,240.906 309.233,240.906 321.961,149.362 		"/>
	</g>
	<g>
		
			<line fill="none" stroke="#231F20" stroke-width="1.5285" stroke-linecap="round" stroke-linejoin="round" stroke-miterlimit="10" x1="321.961" y1="228.178" x2="321.961" y2="253.635"/>
		
			<path fill="#FFFFFF" stroke="#231F20" stroke-width="1.5285" stroke-linecap="round" stroke-linejoin="round" stroke-miterlimit="10" d="
			M413.514,240.906"/>
	</g>
	<g>
		<path fill="#231F20" d="M230.417,240.906"/>
		<line fill="none" x1="321.963" y1="240.906" x2="321.963" y2="253.635"/>
	</g>
	<g>
		<polygon fill="#231F20" points="316.497,246.373 361.291,280.236 327.428,235.439 		"/>
	</g>
	<g>
		<polygon fill="#231F20" points="316.497,235.439 282.633,280.234 327.434,246.375 		"/>
	</g>
	<circle fill="#231F20" cx="321.963" cy="240.907" r="16.931"/>
	<circle fill="#F8F5EF" cx="321.963" cy="240.907" r="12.729"/>
	<circle fill="none" stroke="#231F20" stroke-width="1.5285" stroke-miterlimit="10" cx="321.963" cy="240.907" r="8.5"/>
</g>
<g>
	<g>
		<g>
			<path fill="none" stroke="#231F20" stroke-width="0.7642" stroke-miterlimit="10" d="M214.361,152.866"/>
			<path fill="none" stroke="#231F20" stroke-width="0.7642" stroke-miterlimit="10" d="M212.877,154.73"/>
			<path fill="none" stroke="#231F20" stroke-width="0.7642" stroke-miterlimit="10" d="M211.426,156.621"/>
			<path fill="none" stroke="#231F20" stroke-width="0.7642" stroke-miterlimit="10" d="M210.008,158.538"/>
		</g>
	</g>
	<g>
		<g>
			<path fill="none" stroke="#231F20" stroke-width="0.7316" stroke-miterlimit="10" d="M321.865,128.117
				c-61.26,0-110.921,50.684-110.921,113.205c0,62.521,49.662,113.205,110.921,113.205c61.262,0,110.923-50.684,110.923-113.205
				C432.788,178.802,383.127,128.117,321.865,128.117z"/>
			<path fill="none" stroke="#231F20" stroke-width="0.7316" stroke-miterlimit="10" d="M319.93,128.135"/>
			<path fill="none" stroke="#231F20" stroke-width="0.7316" stroke-miterlimit="10" d="M317.996,128.19"/>
			<path fill="none" stroke="#231F20" stroke-width="0.7316" stroke-miterlimit="10" d="M316.061,128.276"/>
			<path fill="none" stroke="#231F20" stroke-width="0.7316" stroke-miterlimit="10" d="M314.126,128.395"/>
			<path fill="none" stroke="#231F20" stroke-width="0.7316" stroke-miterlimit="10" d="M312.198,128.55"/>
			<path fill="none" stroke="#231F20" stroke-width="0.7316" stroke-miterlimit="10" d="M310.272,128.741"/>
			<path fill="none" stroke="#231F20" stroke-width="0.7316" stroke-miterlimit="10" d="M308.348,128.964"/>
			<path fill="none" stroke="#231F20" stroke-width="0.7316" stroke-miterlimit="10" d="M306.428,129.222"/>
			<path fill="none" stroke="#231F20" stroke-width="0.7316" stroke-miterlimit="10" d="M304.513,129.514"/>
			<path fill="none" stroke="#231F20" stroke-width="0.7316" stroke-miterlimit="10" d="M300.7,130.201"/>
			<path fill="none" stroke="#231F20" stroke-width="0.7316" stroke-miterlimit="10" d="M298.805,130.594"/>
			<path fill="none" stroke="#231F20" stroke-width="0.7316" stroke-miterlimit="10" d="M259.837,147.464"/>
			<path fill="none" stroke="#231F20" stroke-width="0.7316" stroke-miterlimit="10" d="M258.24,148.584"/>
			<path fill="none" stroke="#231F20" stroke-width="0.7316" stroke-miterlimit="10" d="M252.056,153.338"/>
		</g>
	</g>
</g>
<path fill="none" d="M213.5,241.65"/>
<path fill="none" d="M542.5,240"/>
<path fill="none" d="M408.763,241.32"/>
<line opacity="0" fill="none" stroke="#000000" stroke-miterlimit="10" x1="127.038" y1="379.114" x2="127.038" y2="96.176"/>
<line opacity="0" fill="none" stroke="#000000" stroke-miterlimit="10" x1="494.5" y1="381.473" x2="127.038" y2="379.682"/>
<line opacity="0" fill="none" stroke="#000000" stroke-miterlimit="10" x1="127.038" y1="96.176" x2="494.5" y2="96.525"/>
<line opacity="0" fill="none" stroke="#000000" stroke-miterlimit="10" x1="494.5" y1="96.525" x2="494.5" y2="381.473"/>
</svg>
